<svg width="447" height="96" viewBox="0 0 447 96" fill="none" xmlns="http://www.w3.org/2000/svg">
<g clip-path="url(#clip0_10219_32005)">
<path fill-rule="evenodd" clip-rule="evenodd" d="M58.0845 63.194C57.2626 62.9201 57.18 61.7851 58.1236 61.3328C74.9789 53.3314 73.8743 35.2672 73.8743 35.2672C73.7874 16.9117 60.3501 -0.100068 38.6114 -4.94338e-05C14.4288 0.113015 -0.104297 19.1382 7.00559e-05 41.6336C0.182712 81.0016 30.249 96.0434 39.6203 96L39.5463 80.348C39.5333 77.8545 39.5232 75.9311 41.064 75.9311C41.064 75.9311 50.744 85.6329 61.4938 85.585C78.2403 85.5068 83.924 71.4825 83.924 71.4825L58.0802 63.194H58.0845ZM38.7158 51.1831C30.1664 51.2223 23.1999 44.3254 23.1608 35.7717C23.1217 27.2223 30.0185 20.2558 38.5723 20.2167C47.1216 20.1775 54.0881 27.0744 54.1273 35.6281C54.1664 44.1775 47.2695 51.144 38.7158 51.1831Z" fill="white"/>
<path d="M278.798 8.69727C275.228 8.69727 272.336 11.5891 272.336 15.1593C272.336 18.7295 275.228 21.6213 278.798 21.6213C282.369 21.6213 285.26 18.7295 285.26 15.1593C285.26 11.5891 282.369 8.69727 278.798 8.69727Z" fill="white"/>
<path fill-rule="evenodd" clip-rule="evenodd" d="M327.625 33.3582V12.3762H338.113V71.6347H328.103V65.3075C326.181 68.5907 322.019 72.9959 313.048 72.9959C299.515 72.9959 290.787 62.4244 290.787 49.6134C290.787 35.3586 300.959 26.3091 312.891 26.3091C321.297 26.3091 326.024 30.7969 327.625 33.3582ZM314.731 63.1506C318.575 63.1506 322.019 61.6286 324.502 59.1455L324.498 59.1499C326.981 56.6668 328.425 53.2227 328.264 49.3785C328.264 45.5344 326.742 42.2512 324.337 39.929C321.937 37.5286 318.571 36.0848 314.809 36.0848C306.242 36.0848 301.276 42.6512 301.276 49.5394V49.6177C301.276 57.0625 306.643 63.1506 314.731 63.1506Z" fill="white"/>
<path fill-rule="evenodd" clip-rule="evenodd" d="M244.777 26.3092C237.49 26.3098 232.368 29.6754 229.242 34.0758V27.6703H219.392V87.0115H229.881V65.7902C231.642 68.5951 236.286 72.9959 244.857 72.9959C257.751 72.9959 266.64 62.507 266.64 50.0134C266.64 39.3642 260.152 26.3104 244.777 26.3092ZM256.146 49.6917C256.146 56.8973 250.78 63.2245 242.774 63.2245C239.013 63.2245 235.647 61.7025 233.247 59.3021C230.846 56.9016 229.402 53.5358 229.402 49.7743C229.402 46.0127 230.846 42.486 233.164 40.0856C235.569 37.6025 238.852 36.0805 242.692 36.0805C251.58 36.0805 256.146 43.2861 256.146 49.6134V49.6917Z" fill="white"/>
<path fill-rule="evenodd" clip-rule="evenodd" d="M184.934 26.3135C192.944 26.3135 197.827 30.5578 199.749 34.0801V27.6703H210.242V71.6391H199.749V65.3119C196.949 70.4389 191.1 73.0002 184.934 73.0002C170.84 73.0002 162.59 62.0287 162.59 49.6177C162.59 35.763 172.601 26.3135 184.934 26.3135ZM198.145 56.1841C199.188 54.262 199.667 52.1791 199.828 50.0178V50.0221C199.91 47.9392 199.51 45.7779 198.627 43.8558C196.784 39.6942 192.7 36.0892 186.373 36.0892C177.884 36.0892 173.079 42.9774 173.079 49.783V49.8612C173.079 55.3057 177.002 63.2332 186.451 63.2332C192.3 63.2332 196.14 60.1892 198.145 56.1841Z" fill="white"/>
<path d="M273.554 27.6703H284.047V71.6348H273.554V27.6703Z" fill="white"/>
<path fill-rule="evenodd" clip-rule="evenodd" d="M135.077 12.3762C149.965 12.3762 157.941 19.4114 157.942 32.234C157.941 43.3911 150.94 48.6829 140.882 50.3004L161.251 68.9777C159.325 71.3521 156.615 72.2653 153.841 72.2653C148.196 72.2653 144.657 70.0953 139.978 64.6726C137.081 61.3155 129.089 52.1225 129.089 52.1225C129.089 52.1225 128.241 50.8658 126.875 50.8658H126.432V71.6347H114.499V12.3762H135.077ZM131.728 21.1908H126.432V42.4947L131.728 42.5251C140.508 42.5251 146.492 39.7029 146.492 31.9014C146.492 24.6697 142.861 21.1908 131.728 21.1908Z" fill="white"/>
<path fill-rule="evenodd" clip-rule="evenodd" d="M399.36 27.2512V72.0486L399.364 72.0397H408.579V56.8128H416.319C419.689 56.8128 422.578 56.1943 424.99 54.9575C427.402 53.7206 429.235 51.9934 430.494 49.7758C431.749 47.5582 432.38 45.0182 432.38 42.1601C432.38 39.1297 431.762 36.4969 430.525 34.2573C429.284 32.0177 427.503 30.2904 425.18 29.0756C422.852 27.8608 420.113 27.2512 416.955 27.2512H399.36ZM408.579 49.7758H414.719C417.405 49.7758 419.455 49.1264 420.864 47.8233C422.273 46.5246 422.976 44.6339 422.976 42.1601C422.976 39.8144 422.313 38.0342 420.992 36.815C419.667 35.6002 417.834 34.9906 415.488 34.9906H408.579V49.7758Z" fill="white"/>
<path fill-rule="evenodd" clip-rule="evenodd" d="M366.724 27.2556L352.199 72.0486H361.732L364.782 61.937H381.131L384.261 72.0486H393.922L379.331 27.2556H366.724ZM378.932 54.8337L372.851 35.1895L366.925 54.8337H378.932Z" fill="white"/>
<path d="M447.231 27.2512H438.016V72.0441H447.231V27.2512Z" fill="white"/>
</g>
<defs>
<clipPath id="clip0_10219_32005">
<rect width="447" height="96" fill="white"/>
</clipPath>
</defs>
</svg>
